<svg width="23" height="23" viewBox="0 0 23 23" fill="none" xmlns="http://www.w3.org/2000/svg">
<path d="M19.4062 13.6562C19.4062 13.225 19.6937 12.9375 20.125 12.9375H22.7125C22.1375 11.6438 20.9156 10.7812 19.4062 10.7812H17.6094L15.0938 7.7625C14.375 6.97188 13.3688 6.46875 12.2906 6.46875H6.82812C5.4625 6.46875 4.24062 7.25938 3.59375 8.48125L2.44375 10.7812H2.15625C0.934375 10.7812 0 11.7156 0 12.9375V15.8125C0 16.6031 0.646875 17.25 1.4375 17.25H2.22812C2.51562 18.4719 3.66563 19.4062 5.03125 19.4062C6.39687 19.4062 7.475 18.4719 7.83437 17.25H13.8C14.0875 18.4719 15.2375 19.4062 16.6031 19.4062C17.9688 19.4062 19.0469 18.4719 19.4062 17.25H21.5625C22.3531 17.25 23 16.6031 23 15.8125V14.375H20.125C19.6937 14.375 19.4062 14.0875 19.4062 13.6562ZM5.03125 17.9688C4.24062 17.9688 3.59375 17.3219 3.59375 16.5312C3.59375 15.7406 4.24062 15.0938 5.03125 15.0938C5.82188 15.0938 6.46875 15.7406 6.46875 16.5312C6.46875 17.3219 5.82188 17.9688 5.03125 17.9688ZM6.75625 10.7812H4.025L4.8875 9.12812C5.24688 8.40937 5.96562 7.90625 6.82812 7.90625H8.19375L6.75625 10.7812ZM8.3375 10.7812L9.775 7.90625H12.2906C12.9375 7.90625 13.5125 8.19375 13.9437 8.69688L15.6687 10.7812H8.3375ZM16.5312 17.9688C15.7406 17.9688 15.0938 17.3219 15.0938 16.5312C15.0938 15.7406 15.7406 15.0938 16.5312 15.0938C17.3219 15.0938 17.9688 15.7406 17.9688 16.5312C17.9688 17.3219 17.3219 17.9688 16.5312 17.9688Z" fill="#1B6BDC"/>
</svg>
