<svg width="21" height="21" viewBox="0 0 21 21" fill="none" xmlns="http://www.w3.org/2000/svg">
<rect width="21" height="21" fill="none"/>
<path d="M15.4492 2.05074C14.0821 0.683438 12.4322 0 10.5 0C8.5676 0 6.91791 0.683581 5.55074 2.05074C4.18363 3.41786 3.5 5.0676 3.5 6.99997C3.5 7.99357 3.65036 8.80922 3.95104 9.44726L8.94131 20.0295C9.07807 20.3301 9.29007 20.5671 9.57715 20.7401C9.86427 20.9133 10.1718 21 10.5001 21C10.8282 21 11.1359 20.9133 11.423 20.7401C11.7101 20.5671 11.9264 20.3301 12.0723 20.0295L17.0486 9.44726C17.3494 8.80922 17.4998 7.99352 17.4998 6.99997C17.5001 5.0676 16.8166 3.41805 15.4492 2.05074ZM12.9745 9.4746C12.291 10.158 11.4662 10.4999 10.5 10.4999C9.53376 10.4999 8.70896 10.158 8.02528 9.4746C7.3417 8.79093 6.99984 7.96613 6.99984 6.99992C6.99984 6.03381 7.3417 5.20887 8.02528 4.52538C8.70896 3.8418 9.5339 3.49994 10.5 3.49994C11.4662 3.49994 12.291 3.8418 12.9745 4.52538C13.658 5.20882 13.9999 6.03381 13.9999 6.99992C13.9999 7.96603 13.658 8.79078 12.9745 9.4746Z" fill="#1B6BDC"/>
</svg>
